HIERARCHY
ROOT Hips
{
    OFFSET 0.000000 0.000000 0.000000
    CHANNELS 6 Xposition Yposition Zposition Zrotation Xrotation Yrotation
    JOINT Spine
    {
        OFFSET -0.000000 14.517291 0.000000
        CHANNELS 3 Zrotation Xrotation Yrotation
        JOINT Spine1
        {
            OFFSET -0.000000 37.558300 0.000000
            CHANNELS 3 Zrotation Xrotation Yrotation
            JOINT Neck
            {
                OFFSET -0.000000 37.404057 3.400369
                CHANNELS 3 Zrotation Xrotation Yrotation
                JOINT Head
                {
                    OFFSET -0.000000 24.785618 -3.540803
                    CHANNELS 3 Zrotation Xrotation Yrotation
                    End Site
                    {
                        OFFSET -0.000000 35.408028 0.000000
                    }
                }
            }
            JOINT LeftShoulder
            {
                OFFSET 6.992933 33.973492 -0.192664
                CHANNELS 3 Zrotation Xrotation Yrotation
                JOINT LeftArm
                {
                    OFFSET 21.527611 0.000000 0.000000
                    CHANNELS 3 Zrotation Xrotation Yrotation
                    JOINT LeftForeArm
                    {
                        OFFSET 56.353916 0.000000 0.000000
                        CHANNELS 3 Zrotation Xrotation Yrotation
                        JOINT LeftHand
                        {
                            OFFSET 47.774071 0.000000 0.000000
                            CHANNELS 3 Zrotation Xrotation Yrotation
                            End Site
                            {
                                OFFSET 26.556021 0.000000 0.000000
                            }
                        }
                    }
                }
            }
            JOINT RightShoulder
            {
                OFFSET -7.065357 33.973492 -0.192664
                CHANNELS 3 Zrotation Xrotation Yrotation
                JOINT RightArm
                {
                    OFFSET -21.527611 0.000000 0.000000
                    CHANNELS 3 Zrotation Xrotation Yrotation
                    JOINT RightForeArm
                    {
                        OFFSET -56.353916 0.000000 0.000000
                        CHANNELS 3 Zrotation Xrotation Yrotation
                        JOINT RightHand
                        {
                            OFFSET -47.774071 0.000000 0.000000
                            CHANNELS 3 Zrotation Xrotation Yrotation
                            End Site
                            {
                                OFFSET -26.556021 0.000000 0.000000
                            }
                        }
                    }
                }
            }
        }
    }
    JOINT LeftUpLeg
    {
        OFFSET 17.704014 0.000000 0.000000
        CHANNELS 3 Zrotation Xrotation Yrotation
        JOINT LeftLeg
        {
            OFFSET -0.000000 -81.181816 0.000000
            CHANNELS 3 Zrotation Xrotation Yrotation
            JOINT LeftFoot
            {
                OFFSET -0.000000 -62.821102 0.000000
                CHANNELS 3 Zrotation Xrotation Yrotation
                JOINT LeftToeBase
                {
                    OFFSET -0.000000 -11.507608 26.556021
                    CHANNELS 3 Zrotation Xrotation Yrotation
                    End Site
                    {
                        OFFSET -0.000000 0.000000 7.081605
                    }
                }
            }
        }
    }
    JOINT RightUpLeg
    {
        OFFSET -17.704014 0.000000 0.000000
        CHANNELS 3 Zrotation Xrotation Yrotation
        JOINT RightLeg
        {
            OFFSET -0.000000 -81.181816 0.000000
            CHANNELS 3 Zrotation Xrotation Yrotation
            JOINT RightFoot
            {
                OFFSET -0.000000 -62.821102 0.000000
                CHANNELS 3 Zrotation Xrotation Yrotation
                JOINT RightToeBase
                {
                    OFFSET -0.000000 -11.507608 26.556021
                    CHANNELS 3 Zrotation Xrotation Yrotation
                    End Site
                    {
                        OFFSET -0.000000 0.000000 7.081605
                    }
                }
            }
        }
    }
}
MOTION
Frames:    10
Frame Time:    0.008333
4.316799    148.097336    -33.197266    13.445961    0.918972    5.034179    9.464726    3.409292    7.211108    2.424078    -2.404429    2.553333    4.746848    0.847266    -6.296690    -8.112239    -0.648483    -8.420017    0.201519    6.759568    -8.924353    -41.613850    19.241390    -45.940231    0.466917    -29.070583    -123.762764    -0.928233    -28.269049    -4.887219    -1.058729    9.153051    1.763038    34.726849    9.705415    58.000114    -25.656303    -28.181978    48.396873    17.388218    -12.244494    33.551476    -13.899616    -31.319750    -23.141520    -13.597687    23.868193    -17.470201    -2.649892    2.907655    38.803886    0.000000    0.000000    0.000000    -22.704309    8.473661    -19.268600    -0.486695    37.750568    -4.479608    14.380217    -39.442112    -1.143945    0.000000    0.000000    0.000000    
4.328641    148.093918    -33.206654    13.444405    0.916591    4.992829    9.448397    3.419863    7.212720    2.425566    -2.407691    2.554094    4.741708    0.867684    -6.309071    -8.085933    -0.673521    -8.429121    0.212657    6.768683    -8.927500    -41.608669    19.251373    -45.942760    0.474780    -29.032528    -123.754837    -0.939954    -28.217596    -4.881282    -1.043785    9.139234    1.773781    34.736752    9.680799    57.986549    -25.615227    -28.163795    48.422123    17.360855    -12.243722    33.559460    -13.891186    -31.331964    -23.135941    -13.593012    23.878416    -17.448929    -2.648863    2.903952    38.809479    0.000000    0.000000    0.000000    -22.720901    8.447275    -19.229750    -0.480853    37.769798    -4.476741    14.371140    -39.448345    -1.129504    0.000000    0.000000    0.000000    
4.340365    148.088470    -33.213295    13.440637    0.914397    4.959798    9.433360    3.415220    7.212281    2.423089    -2.391001    2.553248    4.776906    0.893707    -6.314516    -8.104469    -0.710919    -8.443932    0.230343    6.776222    -8.927222    -41.599438    19.267658    -45.962818    0.468096    -28.994070    -123.738029    -0.947688    -28.189274    -4.914856    -1.016753    9.115581    1.784151    34.773281    9.560901    57.950977    -25.412916    -28.054436    48.539978    17.280855    -12.213198    33.537468    -13.883060    -31.350225    -23.150663    -13.609047    23.902815    -17.410032    -2.637954    2.889135    38.817169    0.000000    0.000000    0.000000    -22.733273    8.423919    -19.215734    -0.474182    37.788502    -4.494317    14.381330    -39.458340    -1.104405    0.000000    0.000000    0.000000    
4.349849    148.085236    -33.217785    13.425679    0.911598    4.926737    9.443970    3.403606    7.209113    2.402914    -2.366328    2.551015    4.806012    0.918011    -6.321920    -8.117483    -0.744511    -8.458929    0.252126    6.781593    -8.928021    -41.586819    19.285477    -45.985954    0.436777    -28.941250    -123.748169    -0.845381    -28.191679    -4.864399    -0.989467    9.098452    1.787251    34.753860    9.560481    57.949001    -25.415794    -28.074856    48.533886    17.304991    -12.228223    33.540924    -13.857322    -31.362291    -23.167011    -13.631527    23.910814    -17.384802    -2.629935    2.871016    38.847584    0.000000    0.000000    0.000000    -22.731285    8.408423    -19.225065    -0.497931    37.788601    -4.452422    14.393767    -39.456860    -1.082684    0.000000    0.000000    0.000000    
4.360795    148.080109    -33.220291    13.415961    0.903629    4.899570    9.446698    3.400662    7.198964    2.386744    -2.348474    2.546876    4.819214    0.925431    -6.329598    -8.113907    -0.748052    -8.468160    0.272226    6.780951    -8.935920    -41.589878    19.303122    -45.981480    0.429081    -28.909178    -123.750023    -0.805283    -28.173664    -4.831133    -0.969074    9.079320    1.792791    34.751865    9.547906    57.938618    -25.381289    -28.068972    48.548927    17.295889    -12.235095    33.549950    -13.843291    -31.373554    -23.172815    -13.647846    23.935289    -17.349113    -2.611717    2.857020    38.855549    0.000000    0.000000    0.000000    -22.734791    8.402256    -19.224941    -0.511711    37.794201    -4.392274    14.393137    -39.465641    -1.105121    0.000000    0.000000    0.000000    
4.368611    148.077347    -33.221130    13.398239    0.896244    4.872130    9.452598    3.394299    7.201375    2.377298    -2.327382    2.546937    4.816135    0.920849    -6.339626    -8.087967    -0.735413    -8.473597    0.289092    6.788821    -8.940772    -41.579075    19.337887    -46.006039    0.435825    -28.907932    -123.737396    -0.777707    -28.162626    -4.818220    -0.949930    9.055602    1.778734    34.714664    9.642441    57.939751    -25.506519    -28.176702    48.491276    17.365566    -12.288790    33.558945    -13.811438    -31.380596    -23.172049    -13.673377    23.945784    -17.303581    -2.583547    2.850066    38.842499    0.000000    0.000000    0.000000    -22.729452    8.404263    -19.234154    -0.514644    37.776295    -4.351788    14.360181    -39.470261    -1.105359    0.000000    0.000000    0.000000    
4.379605    148.076553    -33.219677    13.381911    0.889356    4.849947    9.464225    3.380112    7.192677    2.370970    -2.309782    2.543292    4.829644    0.934576    -6.339922    -8.109768    -0.729394    -8.478041    0.290900    6.802425    -8.952288    -41.572659    19.351473    -45.999073    0.435159    -28.899099    -123.729874    -0.817231    -28.153694    -4.822541    -0.947932    9.054001    1.786549    34.709007    9.641197    57.938129    -25.485422    -28.202606    48.494415    17.390316    -12.318717    33.561367    -13.790879    -31.385576    -23.170837    -13.681273    23.959860    -17.307989    -2.572272    2.837755    38.870796    0.000000    0.000000    0.000000    -22.727301    8.415660    -19.256500    -0.514539    37.743458    -4.360010    14.386939    -39.466568    -1.043651    0.000000    0.000000    0.000000    
4.390315    148.077972    -33.217335    13.362980    0.884396    4.826658    9.470376    3.364300    7.188507    2.374922    -2.292448    2.541262    4.814105    0.910573    -6.343485    -8.098666    -0.663208    -8.474376    0.292391    6.799047    -8.965647    -41.583874    19.377584    -45.989902    0.423486    -28.876520    -123.732430    -0.797828    -28.150974    -4.800900    -0.951379    9.046784    1.782960    34.733952    9.623643    57.932320    -25.447552    -28.184654    48.517246    17.396402    -12.307652    33.566788    -13.768635    -31.393150    -23.125904    -13.668073    23.986906    -17.331947    -2.566235    2.829329    38.868755    0.000000    0.000000    0.000000    -22.722502    8.422090    -19.286964    -0.527969    37.715977    -4.342716    14.406826    -39.444763    -0.998856    0.000000    0.000000    0.000000    
4.402396    148.083023    -33.216942    13.347451    0.884030    4.806597    9.479403    3.348033    7.180836    2.374174    -2.275671    2.538015    4.784520    0.900044    -6.341777    -8.062604    -0.628548    -8.461173    0.279821    6.799916    -8.963767    -41.587292    19.381378    -45.981915    0.400266    -28.812605    -123.747261    -0.786687    -28.125301    -4.773489    -0.958849    9.048421    1.775639    34.741016    9.618981    57.943192    -25.425976    -28.189896    48.524258    17.374287    -12.330634    33.552498    -13.748953    -31.404741    -23.112186    -13.673835    23.999872    -17.344717    -2.571465    2.829727    38.889099    0.000000    0.000000    0.000000    -22.724060    8.421510    -19.306044    -0.531498    37.697014    -4.309107    14.400611    -39.423088    -0.985322    0.000000    0.000000    0.000000    
4.417916    148.087372    -33.217377    13.339638    0.885999    4.793229    9.477854    3.336126    7.170489    2.374620    -2.279140    2.534330    4.783001    0.880617    -6.337233    -8.076875    -0.560462    -8.454502    0.271900    6.803822    -8.964571    -41.590469    19.399376    -45.973980    0.380345    -28.775749    -123.754570    -0.769809    -28.121519    -4.761675    -0.971989    9.074397    1.759454    34.798717    9.499223    57.956722    -25.228434    -28.082937    48.625748    17.334824    -12.295372    33.515633    -13.746739    -31.422073    -23.094713    -13.678707    24.029966    -17.336040    -2.558080    2.835083    38.889568    0.000000    0.000000    0.000000    -22.735228    8.420586    -19.343851    -0.545339    37.687035    -4.252896    14.428250    -39.407562    -0.954169    0.000000    0.000000    0.000000    
